<?xml version="1.0" encoding="UTF-8"?> <svg xmlns="http://www.w3.org/2000/svg" width="443" height="130" viewBox="0 0 443 130" fill="none"> <path fill-rule="evenodd" clip-rule="evenodd" d="M443 0H0V130H443V0ZM433 10H202V120H433V10Z" fill="white"></path> <path fill-rule="evenodd" clip-rule="evenodd" d="M38 49C45.732 49 52 42.732 52 35C52 27.268 45.732 21 38 21C30.268 21 24 27.268 24 35C24 42.732 30.268 49 38 49ZM44.2903 33.6836H44.831C44.9163 34.1101 44.9623 34.5498 44.9623 35C44.9623 38.7118 41.954 41.72 38.2423 41.72C34.5305 41.72 31.5223 38.7118 31.5223 35C31.5223 31.2882 34.5305 28.28 38.2423 28.28C40.0128 28.28 41.618 28.9704 42.8176 30.0886L40.9171 31.9891C40.2058 31.3552 39.27 30.968 38.2423 30.968C36.015 30.968 34.2103 32.7727 34.2103 35C34.2103 37.2273 36.015 39.032 38.2423 39.032C39.9971 39.032 41.4855 37.9085 42.0406 36.344H38.2423V33.656H44.2903V33.6836Z" fill="#D94F3D"></path> <path d="M63.1378 38H68.7308C71.6712 38 73.2372 36.4659 73.2372 34.3821C73.2372 32.4453 71.8501 31.2756 70.3608 31.2053V31.0774C71.7223 30.7706 72.7259 29.8054 72.7259 28.2649C72.7259 26.3026 71.2685 24.9091 68.3793 24.9091H63.1378V38ZM65.9055 35.7372V32.2599H68.2259C69.5554 32.2599 70.38 33.027 70.38 34.1072C70.38 35.0916 69.7088 35.7372 68.1619 35.7372H65.9055ZM65.9055 30.3871V27.1463H68.0085C69.2358 27.1463 69.9325 27.7791 69.9325 28.7251C69.9325 29.7607 69.0888 30.3871 67.9574 30.3871H65.9055ZM77.7868 38.1854C79.2377 38.1854 80.1774 37.5526 80.6568 36.6385H80.7335V38H83.3159V31.3778C83.3159 29.0384 81.3343 28.054 79.1483 28.054C76.796 28.054 75.2491 29.179 74.872 30.9688L77.3904 31.1733C77.5758 30.5213 78.1575 30.0419 79.1355 30.0419C80.0623 30.0419 80.5929 30.5085 80.5929 31.3139V31.3523C80.5929 31.9851 79.9217 32.0682 78.215 32.2344C76.2718 32.4134 74.5268 33.0653 74.5268 35.2578C74.5268 37.201 75.9139 38.1854 77.7868 38.1854ZM78.5666 36.3061C77.7292 36.3061 77.1284 35.9162 77.1284 35.1683C77.1284 34.4013 77.7612 34.0241 78.72 33.8899C79.3145 33.8068 80.286 33.6662 80.612 33.4489V34.4908C80.612 35.5199 79.7619 36.3061 78.5666 36.3061ZM85.4284 38H88.1515V34.8807L88.8865 34.0433L91.5648 38H94.7544L90.9256 32.4325L94.5691 28.1818H91.4434L88.2985 31.9084H88.1515V24.9091H85.4284V38ZM99.9751 38.1918C102.404 38.1918 104.04 37.0092 104.424 35.1875L101.906 35.0213C101.631 35.7692 100.928 36.1591 100.02 36.1591C98.6584 36.1591 97.7955 35.2578 97.7955 33.794V33.7876H104.482V33.0398C104.482 29.7031 102.462 28.054 99.8665 28.054C96.9773 28.054 95.1044 30.1058 95.1044 33.1357C95.1044 36.2486 96.9517 38.1918 99.9751 38.1918ZM97.7955 32.1001C97.853 30.9815 98.7031 30.0866 99.9112 30.0866C101.094 30.0866 101.912 30.9304 101.918 32.1001H97.7955ZM106.259 38H108.982V32.4453C108.982 31.2372 109.864 30.4062 111.065 30.4062C111.442 30.4062 111.96 30.4702 112.216 30.5533V28.1371C111.973 28.0795 111.634 28.0412 111.359 28.0412C110.26 28.0412 109.359 28.6804 109.001 29.8949H108.898V28.1818H106.259V38ZM115.508 41.8224C117.502 41.8224 118.685 40.6974 119.241 39.125L123.076 28.1818H120.193L118.141 35.392H118.039L116.006 28.1818H113.143L116.665 38.2812L116.486 38.7543C116.102 39.6491 115.444 39.7067 114.485 39.4126L113.871 41.522C114.178 41.6562 114.734 41.8224 115.508 41.8224ZM136.805 30.9815C136.562 29.1726 135.104 28.054 132.624 28.054C130.112 28.054 128.456 29.2173 128.463 31.1094C128.456 32.5795 129.383 33.532 131.301 33.9155L133.001 34.2543C133.858 34.4268 134.248 34.7401 134.26 35.2322C134.248 35.8139 133.615 36.2294 132.662 36.2294C131.691 36.2294 131.045 35.8139 130.879 35.0149L128.201 35.1555C128.456 37.0348 130.055 38.1918 132.656 38.1918C135.2 38.1918 137.022 36.8942 137.028 34.9574C137.022 33.5384 136.095 32.6882 134.19 32.2983L132.413 31.9403C131.499 31.7422 131.16 31.429 131.167 30.956C131.16 30.3679 131.825 29.9844 132.669 29.9844C133.615 29.9844 134.177 30.5021 134.312 31.1349L136.805 30.9815ZM141.466 32.3239C141.472 31.0582 142.246 30.3168 143.358 30.3168C144.464 30.3168 145.116 31.0263 145.109 32.2344V38H147.832V31.7486C147.839 29.4474 146.484 28.054 144.438 28.054C142.949 28.054 141.952 28.7571 141.504 29.9141H141.389V24.9091H138.743V38H141.466V32.3239ZM154.411 38.1918C157.39 38.1918 159.244 36.1527 159.244 33.1293C159.244 30.0866 157.39 28.054 154.411 28.054C151.433 28.054 149.579 30.0866 149.579 33.1293C149.579 36.1527 151.433 38.1918 154.411 38.1918ZM154.424 36.0824C153.05 36.0824 152.347 34.8232 152.347 33.1101C152.347 31.397 153.05 30.1314 154.424 30.1314C155.773 30.1314 156.476 31.397 156.476 33.1101C156.476 34.8232 155.773 36.0824 154.424 36.0824ZM161.014 41.6818H163.737V36.4276H163.82C164.198 37.2457 165.022 38.1598 166.607 38.1598C168.845 38.1598 170.59 36.3892 170.59 33.1037C170.59 29.7287 168.768 28.054 166.614 28.054C164.971 28.054 164.185 29.032 163.82 29.831H163.699V28.1818H161.014V41.6818ZM163.68 33.0909C163.68 31.3395 164.421 30.2209 165.744 30.2209C167.093 30.2209 167.809 31.3906 167.809 33.0909C167.809 34.804 167.08 35.9929 165.744 35.9929C164.434 35.9929 163.68 34.8423 163.68 33.0909Z" fill="#D94F3D"></path> <path d="M67.8295 50.4545H68.8523C68.8054 49.1378 67.5909 48.1534 65.9034 48.1534C64.233 48.1534 62.9205 49.125 62.9205 50.5909C62.9205 51.767 63.7727 52.4659 65.1364 52.858L66.2102 53.1648C67.1307 53.4205 67.9489 53.7443 67.9489 54.6136C67.9489 55.5682 67.0284 56.1989 65.8182 56.1989C64.7784 56.1989 63.858 55.7386 63.7727 54.75H62.6818C62.7841 56.1818 63.9432 57.1534 65.8182 57.1534C67.8295 57.1534 68.9716 56.0455 68.9716 54.6307C68.9716 52.9943 67.4205 52.4659 66.517 52.2273L65.6307 51.9886C64.983 51.8182 63.9432 51.4773 63.9432 50.5398C63.9432 49.7045 64.7102 49.0909 65.8693 49.0909C66.9261 49.0909 67.7273 49.5938 67.8295 50.4545ZM70.5728 59.4545H71.5785V55.9943H71.6637C71.8853 56.3523 72.3114 57.1364 73.5728 57.1364C75.2092 57.1364 76.3512 55.8239 76.3512 53.7443C76.3512 51.6818 75.2092 50.3693 73.5558 50.3693C72.2773 50.3693 71.8853 51.1534 71.6637 51.4943H71.5444V50.4545H70.5728V59.4545ZM71.5614 53.7273C71.5614 52.2614 72.2092 51.2727 73.4364 51.2727C74.7148 51.2727 75.3455 52.3466 75.3455 53.7273C75.3455 55.125 74.6978 56.233 73.4364 56.233C72.2262 56.233 71.5614 55.2102 71.5614 53.7273ZM80.5444 57.1364C82.3171 57.1364 83.5103 55.7898 83.5103 53.7614C83.5103 51.7159 82.3171 50.3693 80.5444 50.3693C78.7717 50.3693 77.5785 51.7159 77.5785 53.7614C77.5785 55.7898 78.7717 57.1364 80.5444 57.1364ZM80.5444 56.233C79.1978 56.233 78.5842 55.0739 78.5842 53.7614C78.5842 52.4489 79.1978 51.2727 80.5444 51.2727C81.891 51.2727 82.5046 52.4489 82.5046 53.7614C82.5046 55.0739 81.891 56.233 80.5444 56.233ZM86.0511 53.0625C86.0511 51.9205 86.7585 51.2727 87.7216 51.2727C88.6548 51.2727 89.2216 51.8821 89.2216 52.9091V57H90.2273V52.8409C90.2273 51.1705 89.3366 50.3693 88.0114 50.3693C87.0227 50.3693 86.4091 50.8125 86.1023 51.4773H86.017V50.4545H85.0455V57H86.0511V53.0625ZM96.7013 51.9205C96.386 50.9915 95.6786 50.3693 94.3832 50.3693C93.0025 50.3693 91.9798 51.1534 91.9798 52.2614C91.9798 53.1648 92.5167 53.7699 93.7184 54.0511L94.8093 54.3068C95.4698 54.4602 95.7809 54.7756 95.7809 55.2273C95.7809 55.7898 95.1843 56.25 94.2468 56.25C93.4244 56.25 92.9087 55.8963 92.7298 55.1932L91.7752 55.4318C92.0096 56.544 92.9258 57.1364 94.2638 57.1364C95.7852 57.1364 96.8207 56.3054 96.8207 55.1761C96.8207 54.2642 96.2496 53.6889 95.082 53.4034L94.1104 53.1648C93.3349 52.973 92.9854 52.7131 92.9854 52.2102C92.9854 51.6477 93.582 51.2386 94.3832 51.2386C95.261 51.2386 95.6232 51.7244 95.7979 52.1761L96.7013 51.9205ZM100.994 57.1364C102.766 57.1364 103.96 55.7898 103.96 53.7614C103.96 51.7159 102.766 50.3693 100.994 50.3693C99.2209 50.3693 98.0277 51.7159 98.0277 53.7614C98.0277 55.7898 99.2209 57.1364 100.994 57.1364ZM100.994 56.233C99.647 56.233 99.0334 55.0739 99.0334 53.7614C99.0334 52.4489 99.647 51.2727 100.994 51.2727C102.34 51.2727 102.954 52.4489 102.954 53.7614C102.954 55.0739 102.34 56.233 100.994 56.233ZM105.495 57H106.5V52.858C106.5 51.9716 107.199 51.3239 108.154 51.3239C108.422 51.3239 108.699 51.375 108.767 51.392V50.3693C108.652 50.3608 108.388 50.3523 108.239 50.3523C107.455 50.3523 106.773 50.7955 106.534 51.4432H106.466V50.4545H105.495V57ZM112.505 57.1364C113.834 57.1364 114.806 56.4716 115.113 55.483L114.141 55.2102C113.885 55.892 113.293 56.233 112.505 56.233C111.324 56.233 110.51 55.4702 110.463 54.0682H115.215V53.642C115.215 51.2045 113.766 50.3693 112.402 50.3693C110.63 50.3693 109.453 51.767 109.453 53.7784C109.453 55.7898 110.613 57.1364 112.505 57.1364ZM110.463 53.1989C110.532 52.1804 111.252 51.2727 112.402 51.2727C113.493 51.2727 114.192 52.0909 114.192 53.1989H110.463ZM119.216 57.1364C120.478 57.1364 120.904 56.3523 121.125 55.9943H121.245V57H122.216V48.2727H121.211V51.4943H121.125C120.904 51.1534 120.512 50.3693 119.233 50.3693C117.58 50.3693 116.438 51.6818 116.438 53.7443C116.438 55.8239 117.58 57.1364 119.216 57.1364ZM119.353 56.233C118.091 56.233 117.444 55.125 117.444 53.7273C117.444 52.3466 118.074 51.2727 119.353 51.2727C120.58 51.2727 121.228 52.2614 121.228 53.7273C121.228 55.2102 120.563 56.233 119.353 56.233Z" fill="#778699"></path> </svg> 