<?xml version="1.0" encoding="UTF-8"?> <svg xmlns="http://www.w3.org/2000/svg" width="50" height="50" viewBox="0 0 50 50" fill="none"> <rect width="50" height="50" rx="8" fill="#EE93D5"></rect> <path d="M23.6443 11C23.204 11.0027 22.7682 11.1423 22.3717 11.3715C21.8429 11.6772 21.3605 12.1381 20.9103 12.7168C20.0099 13.8744 19.2382 15.5137 18.7131 17.4301L18.767 17.4454L15.4822 18.5153C15.3744 18.5505 15.2787 18.6155 15.2063 18.7028C15.1339 18.7901 15.0878 18.8962 15.0732 19.0086L13.0049 35.095C12.9855 35.2465 13.0246 35.3998 13.1143 35.5235C13.204 35.6472 13.3376 35.732 13.4877 35.7606L28.2381 38.5672C28.2817 38.5752 28.3261 38.5784 28.3705 38.5766C28.4228 38.5791 28.4752 38.5748 28.5263 38.5637L36.5302 36.7918C36.6778 36.7591 36.8076 36.6719 36.8936 36.5476C36.9796 36.4233 37.0156 36.2712 36.9943 36.1215C36.9943 36.1215 36.2934 31.2581 35.5904 26.3774C35.2389 23.937 34.8863 21.4918 34.6213 19.6485C34.4888 18.7268 34.3783 17.9553 34.3002 17.4102C34.2611 17.1376 34.2301 16.9225 34.2088 16.7727C34.1981 16.6978 34.1898 16.6383 34.1842 16.5981C34.1785 16.5578 34.1708 16.4914 34.1771 16.55C34.1705 16.4894 34.1547 16.4301 34.1302 16.3743C33.9938 16.0612 33.7039 15.8768 33.5174 15.8129C33.4548 15.7913 33.389 15.7802 33.3228 15.7801C33.3966 15.7801 33.3087 15.7795 33.2478 15.7754C33.1869 15.7713 33.1029 15.7651 33.0041 15.7579C32.8064 15.7434 32.5498 15.7233 32.2963 15.7039C31.9018 15.6738 31.6685 15.6561 31.5158 15.6442C31.4085 15.5343 31.2479 15.3687 30.9627 15.0793C30.7791 14.8931 30.5904 14.7018 30.4353 14.5473C30.2969 14.4094 30.2175 14.3305 30.1224 14.2473C29.9931 14.1175 29.8442 14.0262 29.6572 13.993C29.6568 13.9929 29.6564 13.9931 29.656 13.993C29.6165 13.9831 29.5761 13.9772 29.5353 13.9754C29.4842 13.9736 29.433 13.9783 29.383 13.9895C29.3636 13.9936 29.3444 13.9987 29.3256 14.0047C29.3224 14.0055 29.3193 14.0063 29.3162 14.0071L28.2392 14.3586C28.0772 13.7404 27.8551 13.1931 27.5455 12.7473C27.1903 12.2359 26.7 11.8427 26.1041 11.7149C25.8195 11.654 25.535 11.6738 25.2615 11.743C24.9377 11.3968 24.5462 11.1434 24.0849 11.0446C23.9385 11.0132 23.7911 10.9991 23.6443 11ZM23.6443 12.1977C23.7096 12.1976 23.7719 12.2046 23.833 12.2176C23.937 12.2399 24.0404 12.2904 24.1424 12.3559C23.8846 12.5744 23.6399 12.8303 23.4052 13.1235C22.6941 14.0121 22.0632 15.2169 21.5326 16.5442L20.1052 17.0094C20.5815 15.5453 21.2023 14.2959 21.8572 13.4539C22.2394 12.9626 22.6295 12.6083 22.9728 12.4098C23.23 12.2612 23.4484 12.198 23.6443 12.1977ZM25.9869 12.9325C26.1819 13.0088 26.371 13.1596 26.5599 13.4317C26.7705 13.7349 26.9581 14.1825 27.0967 14.7301L26.4802 14.9317C26.3879 14.1842 26.2264 13.5121 25.9869 12.9325ZM24.8537 13.3309C25.0724 13.8415 25.2372 14.5163 25.3177 15.3102L23.0537 16.0485C23.4582 15.1866 23.9004 14.4248 24.3416 13.8735C24.5162 13.6553 24.6881 13.4793 24.8537 13.3309ZM28.8627 15.418L27.8291 37.2676L14.267 34.6871L16.2146 19.5383L28.8627 15.418ZM30.0427 15.8551C30.0659 15.8786 30.0853 15.8985 30.1084 15.9219C30.4727 16.2915 30.8162 16.6438 30.8162 16.6438C30.9179 16.7481 31.0541 16.8118 31.1994 16.8231C31.1994 16.8231 31.6964 16.8615 32.2049 16.9004C32.4591 16.9199 32.716 16.9397 32.9162 16.9543C32.9587 16.9575 32.9859 16.9587 33.0228 16.9614C33.0441 17.1112 33.074 17.3158 33.1119 17.5801C33.19 18.1256 33.3016 18.8978 33.4342 19.8196C33.6992 21.6631 34.0506 24.1081 34.4021 26.5485C35.0654 31.1534 35.6537 35.2377 35.7263 35.7418L29.0326 37.2219L30.0427 15.8551ZM23.6572 19.9801C21.7996 19.9811 20.3333 20.6291 19.3611 21.6407C18.3882 22.6529 17.9127 24.0009 17.9127 25.3543C17.9127 26.9974 18.7882 27.9725 19.5252 28.6039C19.8937 28.9197 20.2245 29.1767 20.4287 29.409C20.6329 29.6414 20.7181 29.8063 20.7181 30.0852C20.7181 30.1594 20.6798 30.2895 20.6174 30.3641C20.5549 30.4387 20.4948 30.4918 20.2881 30.4918C19.9462 30.4918 19.4037 30.2651 18.9826 30.0032C18.5615 29.7413 18.2689 29.4829 18.2689 29.4829C18.1934 29.4161 18.1022 29.3694 18.0038 29.3472C17.9055 29.3249 17.8031 29.3279 17.7061 29.3557C17.6092 29.3834 17.5208 29.4352 17.4492 29.5062C17.3775 29.5772 17.325 29.6651 17.2963 29.7618L16.6248 32.02C16.5974 32.1121 16.5926 32.2095 16.6108 32.304C16.6289 32.3984 16.6695 32.4871 16.7291 32.5625C16.7291 32.5625 18.2001 34.3783 20.9595 34.3789C22.1511 34.3789 23.2321 33.9042 23.9877 33.0688C24.7432 32.2334 25.1701 31.0564 25.1701 29.6891C25.1701 27.8926 24.1395 26.7632 23.2318 26.0305C22.778 25.6642 22.3488 25.371 22.0752 25.127C21.8016 24.883 21.7388 24.7489 21.7388 24.6688C21.7388 24.6081 21.7544 24.4426 21.8467 24.3207C21.9389 24.1989 22.1121 24.0325 22.7513 24.0325C23.5973 24.0325 24.358 24.4321 24.358 24.4321C24.4354 24.4742 24.5212 24.4988 24.6092 24.5041C24.6972 24.5093 24.7853 24.4951 24.8672 24.4624C24.9491 24.4297 25.0228 24.3794 25.0831 24.315C25.1433 24.2506 25.1886 24.1738 25.2158 24.0899L26.1709 21.145C26.2126 21.0163 26.2096 20.8772 26.1624 20.7505C26.1152 20.6237 26.0265 20.5166 25.9107 20.4465C25.9107 20.4465 25.6625 20.3023 25.2838 20.1887C24.9061 20.0754 24.3591 19.9722 23.6572 19.9801ZM23.6677 21.1778C24.2058 21.1712 24.579 21.2511 24.8502 21.3266L24.2748 23.102C23.8822 22.9674 23.3493 22.8325 22.7513 22.8325C21.854 22.8325 21.2198 23.1614 20.8904 23.5965C20.561 24.0316 20.5388 24.4853 20.5388 24.6688C20.5388 25.26 20.9062 25.6938 21.276 26.0235C21.6457 26.3532 22.0743 26.6384 22.4783 26.9645C23.2863 27.6166 23.9701 28.3272 23.9701 29.6891C23.9701 30.8094 23.6295 31.6762 23.0982 32.2637C22.5669 32.8512 21.8422 33.1789 20.9595 33.1789C19.0056 33.1785 18.1246 32.2702 17.8834 31.9989L18.2056 30.9161C18.2806 30.967 18.2648 30.9694 18.3486 31.0215C18.8599 31.3395 19.526 31.6918 20.2881 31.6918C20.8121 31.6918 21.2676 31.4561 21.5373 31.134C21.8069 30.8119 21.9181 30.4388 21.9181 30.0852C21.9181 29.4866 21.6516 28.983 21.3299 28.6168C21.0081 28.2507 20.6384 27.9785 20.3056 27.6934C19.6401 27.1232 19.1127 26.6104 19.1127 25.3543C19.1127 24.2813 19.4879 23.2418 20.2271 22.4727C20.9663 21.7036 22.0739 21.1789 23.6607 21.1789C23.6631 21.1786 23.6654 21.1782 23.6677 21.1778V21.1778Z" fill="white"></path> </svg> 