<?xml version="1.0" encoding="UTF-8"?> <svg xmlns="http://www.w3.org/2000/svg" width="50" height="50" viewBox="0 0 50 50" fill="none"> <rect width="50" height="50" rx="8" fill="#00D8CB"></rect> <path d="M35.4906 8C35.2965 8.00273 35.1105 8.0875 34.982 8.23242C34.7113 8.33906 34.4105 8.39375 34.2137 8.58516C33.8828 8.89961 33.6012 9.28516 33.2977 9.72539C32.6961 10.6031 32.0207 11.6996 31.0555 12.7852C29.1277 14.9535 26.1117 17.1 20.1945 17.1C20.1672 17.1 20.1426 17.1 20.1152 17.1027H12.4945C10.5723 17.1027 9 18.6777 9 20.6V24.1C9 25.5848 9.94336 26.8535 11.2586 27.3566C11.2969 27.4004 11.3406 27.4387 11.3898 27.4715C11.6195 27.6328 12.2293 28.7293 12.7297 30.5312C13.2273 32.3359 13.7359 34.8324 14.3184 37.873C14.4305 38.4582 14.6246 39.0461 15.0785 39.5C15.5324 39.9566 16.2078 40.2 17.0062 40.2H19.3414C19.9867 40.2 20.5719 40.0742 21.0039 39.675C21.4387 39.2785 21.5945 38.6906 21.5945 38.1C21.5945 36.8695 20.8617 36.0219 20.0496 35.2125C20.1781 35.341 20.0004 35.1031 19.9156 34.6984C19.8309 34.291 19.7543 33.7031 19.6914 32.9676C19.5766 31.6441 19.5191 29.782 19.5055 27.5973H20.0742C20.1453 27.6082 20.2164 27.6082 20.2875 27.6C20.2957 27.6 20.3039 27.6 20.3121 27.6C26.2539 27.6 29.2426 29.9023 31.1594 32.243C32.1164 33.4133 32.7863 34.6 33.3852 35.5434C33.6832 36.0164 33.9594 36.4293 34.2902 36.7684C34.6211 37.1074 35.0586 37.4 35.5945 37.4H35.6465C35.9199 37.4 36.1961 37.2551 36.3684 37.0828C36.5379 36.9078 36.6473 36.7082 36.743 36.4703C36.9398 35.9945 37.0902 35.3328 37.227 34.3047C37.443 32.6887 37.6043 30.1238 37.6645 26.2H38.0117C39.625 26.2 40.9566 24.975 41.107 23.3809C41.1426 23.2961 41.1617 23.2031 41.1617 23.1102C41.1617 21.3793 39.7644 19.9 38.0117 19.9H37.6645C37.6016 15.5934 37.4047 12.7879 37.1395 11.0789C36.9809 10.048 36.8113 9.38359 36.598 8.90781C36.4914 8.67266 36.3766 8.47578 36.2043 8.30625C36.032 8.13945 35.7668 8 35.4906 8ZM35.3238 9.50391C35.4469 9.77734 35.6109 10.3406 35.7586 11.2922C36.0539 13.2227 36.2945 16.7008 36.2945 22.7C36.2945 28.702 36.0977 32.1855 35.8379 34.1187C35.7121 35.0703 35.5672 35.6281 35.4551 35.9043C35.4086 35.8797 35.3977 35.8961 35.291 35.7895C35.0996 35.5926 34.848 35.2398 34.5664 34.7941C34.0004 33.9 33.2895 32.6367 32.2422 31.357C30.2105 28.877 26.8391 26.3695 20.8918 26.2137V18.4836C26.7187 18.3113 30.0656 16.0062 32.1027 13.7148C33.1609 12.5227 33.8828 11.3469 34.4543 10.5184C34.7387 10.1055 34.9875 9.78008 35.1789 9.59687C35.2664 9.51211 35.2773 9.53125 35.3238 9.50391ZM12.4945 18.4973H19.4973V26.2027H18.9285C18.882 26.1945 18.8328 26.1891 18.7836 26.1891C18.7426 26.1918 18.6988 26.1945 18.6605 26.2027H12.4945C11.3242 26.2027 10.3891 25.2703 10.3891 24.1V20.6C10.3891 19.4297 11.3242 18.4973 12.4945 18.4973ZM37.6809 21.3H38.0117C38.966 21.3 39.7617 22.1367 39.7617 23.1102C39.7617 24.0836 39.007 24.8 38.0117 24.8H37.6754C37.6836 24.1027 37.6945 23.4793 37.6945 22.7C37.6945 22.1805 37.6836 21.7812 37.6809 21.3ZM13.2 27.5973H18.1055C18.1164 29.8094 18.1766 31.6988 18.2941 33.0852C18.3598 33.8562 18.4418 34.4852 18.5457 34.9828C18.6496 35.4805 18.6879 35.8305 19.0598 36.2023C19.8363 36.9762 20.1945 37.3945 20.1945 38.1C20.1945 38.4719 20.1234 38.584 20.0578 38.6441C19.9922 38.7043 19.8008 38.8 19.3414 38.8H17.0062C16.4594 38.8 16.2352 38.6797 16.0711 38.5156C15.9098 38.3516 15.7785 38.059 15.6937 37.6105C15.1113 34.559 14.6 32.0461 14.0777 30.1594C13.7879 29.1176 13.5309 28.2672 13.2 27.5973Z" fill="white"></path> </svg> 