<?xml version="1.0" encoding="UTF-8"?> <svg xmlns="http://www.w3.org/2000/svg" width="140" height="32" viewBox="0 0 140 32" fill="none"> <path d="M31.8183 0H12.7288V6.36422H19.09V12.7284H25.4541V19.0898H31.8183V0Z" fill="#6A85FC"></path> <path d="M19.0896 25.4538H6.36426V31.818H25.4538V19.0896H19.0896V25.4538Z" fill="#FF8775"></path> <path d="M25.4527 12.7285H19.0886V19.0927H25.4527V12.7285Z" fill="#00D8CB"></path> <path d="M12.7282 12.7285V6.36426H0V25.4541H6.36412V12.7285H12.7282Z" fill="#0C44DC"></path> <path d="M19.0929 6.36426H12.7288V12.7285H19.0929V6.36426Z" fill="#36D7FE"></path> <path d="M19.0896 19.0899H12.7284V12.7285H6.36426V25.4541H19.0896V19.0899Z" fill="#EE93D5"></path> <path d="M54.2326 5.9284C54.9763 5.91648 55.7144 6.0601 56.4009 6.3503C57.0098 6.60971 57.5589 6.99445 58.0136 7.48019C58.4574 7.94793 58.7992 8.50522 59.0166 9.11578C59.2395 9.73914 59.3523 10.3975 59.3499 11.0606C59.3555 11.7519 59.2327 12.4381 58.9881 13.0834C58.7459 13.7172 58.3762 14.293 57.9025 14.7739C58.7721 15.1763 59.4933 15.8481 59.9625 16.6927C60.4317 17.5159 60.6802 18.4494 60.6834 19.4003C60.6877 20.1028 60.5651 20.8002 60.3215 21.4578C60.0828 22.1184 59.7145 22.723 59.2388 23.235C58.7418 23.7551 58.1456 24.167 57.4865 24.4458C56.7203 24.7668 55.8962 24.9214 55.0675 24.8995H44.5452V5.87061L54.2326 5.9284ZM47.8788 21.9173H54.6087C54.9815 21.9223 55.3508 21.8454 55.6915 21.6919C55.9806 21.5569 56.2372 21.3597 56.4437 21.114C56.6488 20.8726 56.8091 20.5955 56.9166 20.2962C57.0249 19.9982 57.0808 19.6832 57.0819 19.3657C57.101 18.735 56.8934 18.1188 56.4978 17.6318C56.1103 17.1521 55.4977 16.9267 54.6629 16.9267H47.9073L47.8788 21.9173ZM47.9073 13.7682H53.6628C53.9818 13.7673 54.2962 13.6901 54.5803 13.5429C54.8416 13.4201 55.0702 13.2359 55.247 13.0054C55.4208 12.7777 55.553 12.5203 55.6373 12.2454C55.8234 11.7165 55.8234 11.1386 55.6373 10.6098C55.555 10.3272 55.412 10.0667 55.2185 9.84688C55.0095 9.6161 54.7539 9.43376 54.4691 9.31228C54.1276 9.15851 53.7572 9.08161 53.3836 9.08688H47.9073V13.7682Z" fill="#222E63"></path> <path d="M66.6195 4.77246H63.3372V24.9081H66.6195V4.77246Z" fill="#222E63"></path> <path d="M92.9249 13.8233C92.1795 13.8165 91.4471 14.0217 90.8108 14.4157C90.153 14.829 89.562 15.3427 89.0585 15.9386V24.9632H85.7505V11.0029H87.9758L88.5599 13.2598C89.9218 11.5105 91.6456 10.6369 93.7313 10.6388C94.4578 10.6343 95.1803 10.7485 95.8711 10.9769C96.5386 11.1944 97.1546 11.5496 97.6803 12.0201C98.2239 12.5197 98.6511 13.1356 98.9312 13.8233C99.2598 14.6572 99.4207 15.5493 99.4041 16.4472V24.9343H96.0933V17.132C96.1036 16.6321 96.0195 16.1348 95.8454 15.6669C95.6969 15.2691 95.4588 14.9119 95.1502 14.6237C94.852 14.3487 94.5021 14.1374 94.1216 14.0024C93.7371 13.8664 93.3321 13.7999 92.9249 13.8059V13.8233Z" fill="#222E63"></path> <path d="M122.12 19.1836L119.616 24.9082H118.254L126.625 5.87061H128.07L136.441 24.9082H135.076L132.586 19.1836H122.12ZM122.619 18.0277H132.073L127.346 7.25768L122.619 18.0277Z" fill="#222E63"></path> <path d="M140 4.77246H138.832V24.9081H140V4.77246Z" fill="#222E63"></path> <path d="M113.057 4.88525V10.5809L113.251 12.5286C112.618 11.9923 111.917 11.546 111.165 11.2022C110.421 10.8643 109.615 10.6909 108.8 10.6936C107.882 10.6898 106.972 10.8699 106.123 11.2234C105.274 11.577 104.502 12.0971 103.851 12.754C103.172 13.4528 102.636 14.2806 102.273 15.1901C101.91 16.0996 101.728 17.0727 101.737 18.0538C101.725 19.0757 101.925 20.0888 102.324 21.0273C102.684 21.8975 103.202 22.6915 103.851 23.368C104.496 24.0208 105.262 24.5383 106.105 24.8909C106.976 25.2643 107.912 25.456 108.857 25.4544C109.766 25.4527 110.666 25.2609 111.498 24.8909C112.338 24.5182 113.109 24.0032 113.778 23.368L113.86 23.2842L114.43 25.018H116.376V4.88525H113.057ZM109.316 22.3826C107.085 22.3826 105.273 20.4234 105.273 18.0046C105.273 15.5859 107.085 13.6267 109.316 13.6267C111.547 13.6267 113.362 15.5859 113.362 18.0046C113.362 20.4234 111.55 22.3826 109.316 22.3826Z" fill="#222E63"></path> <path d="M76.3189 25.0873C72.2274 25.0873 69.2556 22.2554 69.2556 17.863C69.2556 13.4706 72.1505 10.6387 76.3189 10.6387C80.3848 10.6387 83.2569 13.3955 83.2569 17.574C83.261 18.0318 83.2267 18.489 83.1543 18.9409H72.8628C73.0394 21.0128 74.4641 22.1774 76.242 22.1774C77.7663 22.1774 78.6069 21.4174 79.0628 20.4811H82.9007C82.1542 23.0501 79.8007 25.0873 76.3189 25.0873ZM72.8998 16.5395H79.5842C79.5329 14.6959 78.0598 13.5313 76.2278 13.5313C74.5153 13.5313 73.1676 14.6178 72.8884 16.5395H72.8998Z" fill="#222E63"></path> </svg> 