<?xml version="1.0" encoding="UTF-8"?> <svg xmlns="http://www.w3.org/2000/svg" width="50" height="50" viewBox="0 0 50 50" fill="none"> <rect width="50" height="50" rx="8" fill="#36D7FE"></rect> <path d="M21.4 10.6016C20.6242 10.6016 19.9632 11.1078 19.7125 11.8016H16.7312C16.6703 11.7852 16.607 11.7781 16.5437 11.7828C16.525 11.7875 16.5062 11.7945 16.4875 11.8016H13C12.0132 11.8016 11.2 12.6148 11.2 13.6016V34.6016C11.2 35.5883 12.0132 36.4016 13 36.4016H23.8C23.8 37.3883 24.6132 38.2016 25.6 38.2016H36.4C37.3867 38.2016 38.2 37.3883 38.2 36.4016V22.6016C38.2 21.6148 37.3867 20.8016 36.4 20.8016H31.6V13.6016C31.6 12.6148 30.7867 11.8016 29.8 11.8016H23.0875C22.8367 11.1078 22.1757 10.6016 21.4 10.6016ZM21.4 11.8016C21.7 11.8016 21.9296 12.0078 21.9812 12.2891C21.9671 12.3641 21.9671 12.4391 21.9812 12.5141C21.9296 12.7953 21.7 13.0016 21.4 13.0016C21.0812 13.0016 20.8281 12.7695 20.8 12.4578C20.8 12.4391 20.8 12.4203 20.8 12.4016C20.8 12.0641 21.0625 11.8016 21.4 11.8016ZM13 13.0016H16V14.8016C16 15.7883 16.8132 16.6016 17.8 16.6016H25C25.9867 16.6016 26.8 15.7883 26.8 14.8016V13.0016H29.8C30.1398 13.0016 30.4 13.2617 30.4 13.6016V20.8016H25.6C24.6132 20.8016 23.8 21.6148 23.8 22.6016V35.2016H13C12.6601 35.2016 12.4 34.9414 12.4 34.6016V13.6016C12.4 13.2617 12.6601 13.0016 13 13.0016ZM17.2 13.0016H19.7125C19.9632 13.6953 20.6242 14.2016 21.4 14.2016C22.1757 14.2016 22.8367 13.6953 23.0875 13.0016H25.6V14.8016C25.6 15.1414 25.3398 15.4016 25 15.4016H17.8C17.4601 15.4016 17.2 15.1414 17.2 14.8016V13.0016ZM17.8 19.0016V22.6016H16.6V20.8016H15.4V22.6016H14.2V23.8016H22.6V22.6016H21.4V20.2016H20.2V22.6016H19V19.0016H17.8ZM25.6 22.0016H36.4C36.7398 22.0016 37 22.2617 37 22.6016V36.4016C37 36.7414 36.7398 37.0016 36.4 37.0016H25.6C25.2601 37.0016 25 36.7414 25 36.4016V35.9141C25.0164 35.8344 25.0164 35.75 25 35.6703V22.6016C25 22.2617 25.2601 22.0016 25.6 22.0016ZM26.6875 23.2016C26.4015 23.2555 26.1953 23.5086 26.2 23.8016V26.2016C26.2 26.532 26.4695 26.8016 26.8 26.8016H35.2C35.5304 26.8016 35.8 26.532 35.8 26.2016V23.8016C35.8 23.4711 35.5304 23.2016 35.2 23.2016H26.8C26.7812 23.2016 26.7625 23.2016 26.7437 23.2016C26.725 23.2016 26.7062 23.2016 26.6875 23.2016ZM27.4 24.4016H34.6V25.6016H27.4V24.4016ZM17.8 26.2016C15.8195 26.2016 14.2 27.8211 14.2 29.8016C14.2 31.782 15.8195 33.4016 17.8 33.4016C19.7804 33.4016 21.4 31.782 21.4 29.8016C21.4 27.8211 19.7804 26.2016 17.8 26.2016ZM17.8 27.4016V29.8016H20.2C20.2 31.1352 19.1335 32.2016 17.8 32.2016C16.4664 32.2016 15.4 31.1352 15.4 29.8016C15.4 28.468 16.4664 27.4016 17.8 27.4016ZM26.8 28.0016C26.4695 28.0016 26.2 28.2711 26.2 28.6016V29.2016C26.2 29.532 26.4695 29.8016 26.8 29.8016H28C28.3304 29.8016 28.6 29.532 28.6 29.2016V28.6016C28.6 28.2711 28.3304 28.0016 28 28.0016H26.8ZM30.4 28.0016C30.0695 28.0016 29.8 28.2711 29.8 28.6016V29.2016C29.8 29.532 30.0695 29.8016 30.4 29.8016H31.6C31.9304 29.8016 32.2 29.532 32.2 29.2016V28.6016C32.2 28.2711 31.9304 28.0016 31.6 28.0016H30.4ZM34 28.0016C33.6695 28.0016 33.4 28.2711 33.4 28.6016V29.2016C33.4 29.532 33.6695 29.8016 34 29.8016H35.2C35.5304 29.8016 35.8 29.532 35.8 29.2016V28.6016C35.8 28.2711 35.5304 28.0016 35.2 28.0016H34ZM26.8 31.0016C26.4695 31.0016 26.2 31.2711 26.2 31.6016V32.2016C26.2 32.532 26.4695 32.8016 26.8 32.8016H28C28.3304 32.8016 28.6 32.532 28.6 32.2016V31.6016C28.6 31.2711 28.3304 31.0016 28 31.0016H26.8ZM30.4 31.0016C30.0695 31.0016 29.8 31.2711 29.8 31.6016V32.2016C29.8 32.532 30.0695 32.8016 30.4 32.8016H31.6C31.9304 32.8016 32.2 32.532 32.2 32.2016V31.6016C32.2 31.2711 31.9304 31.0016 31.6 31.0016H30.4ZM34 31.0016C33.6695 31.0016 33.4 31.2711 33.4 31.6016V32.2016C33.4 32.532 33.6695 32.8016 34 32.8016H35.2C35.5304 32.8016 35.8 32.532 35.8 32.2016V31.6016C35.8 31.2711 35.5304 31.0016 35.2 31.0016H34ZM26.8 34.0016C26.4695 34.0016 26.2 34.2711 26.2 34.6016V35.2016C26.2 35.532 26.4695 35.8016 26.8 35.8016H28C28.3304 35.8016 28.6 35.532 28.6 35.2016V34.6016C28.6 34.2711 28.3304 34.0016 28 34.0016H26.8ZM30.4 34.0016C30.0695 34.0016 29.8 34.2711 29.8 34.6016V35.2016C29.8 35.532 30.0695 35.8016 30.4 35.8016H31.6C31.9304 35.8016 32.2 35.532 32.2 35.2016V34.6016C32.2 34.2711 31.9304 34.0016 31.6 34.0016H30.4ZM34 34.0016C33.6695 34.0016 33.4 34.2711 33.4 34.6016V35.2016C33.4 35.532 33.6695 35.8016 34 35.8016H35.2C35.5304 35.8016 35.8 35.532 35.8 35.2016V34.6016C35.8 34.2711 35.5304 34.0016 35.2 34.0016H34Z" fill="white"></path> </svg> 