<?xml version="1.0" encoding="UTF-8"?> <svg xmlns="http://www.w3.org/2000/svg" width="240" height="55" viewBox="0 0 240 55" fill="none"> <path d="M54.5457 0H21.8208V10.9101H32.7258V21.8202H43.6358V32.7254H54.5457V0Z" fill="#6A85FC"></path> <path d="M32.7251 43.6352H10.9102V54.5453H43.635V32.7251H32.7251V43.6352Z" fill="#FF8775"></path> <path d="M43.6333 21.8203H32.7234V32.7304H43.6333V21.8203Z" fill="#00D8CB"></path> <path d="M21.8199 21.8203V10.9102H0V43.6356H10.9099V21.8203H21.8199Z" fill="#0C44DC"></path> <path d="M32.7307 10.9102H21.8208V21.8203H32.7307V10.9102Z" fill="#36D7FE"></path> <path d="M32.7251 32.7255H21.8201V21.8203H10.9102V43.6356H32.7251V32.7255Z" fill="#EE93D5"></path> <path d="M92.9704 10.1626C94.2453 10.1421 95.5106 10.3883 96.6875 10.8858C97.7312 11.3305 98.6726 11.9901 99.4521 12.8228C100.213 13.6246 100.799 14.58 101.171 15.6266C101.554 16.6953 101.747 17.8238 101.743 18.9606C101.752 20.1457 101.542 21.322 101.123 22.4282C100.707 23.5149 100.074 24.5019 99.2616 25.3262C100.752 26.016 101.989 27.1677 102.793 28.6156C103.597 30.0269 104.023 31.6272 104.029 33.2573C104.036 34.4616 103.826 35.6571 103.408 36.7845C102.999 37.9169 102.368 38.9533 101.552 39.8311C100.7 40.7226 99.6783 41.4288 98.5484 41.9067C97.2349 42.457 95.8222 42.722 94.4015 42.6845H76.3633V10.0635L92.9704 10.1626ZM82.0781 37.5721H93.6152C94.2541 37.5807 94.8873 37.4489 95.4712 37.1857C95.9668 36.9542 96.4069 36.6162 96.7607 36.195C97.1124 35.7813 97.3872 35.3062 97.5716 34.793C97.7571 34.2822 97.853 33.7423 97.8548 33.1979C97.8876 32.1167 97.5318 31.0604 96.8535 30.2256C96.1893 29.4032 95.1391 29.0168 93.708 29.0168H82.1269L82.0781 37.5721ZM82.1269 23.6023H91.9935C92.5404 23.6007 93.0793 23.4683 93.5663 23.2159C94.0143 23.0056 94.4061 22.6896 94.7093 22.2945C95.0072 21.9042 95.2338 21.4629 95.3784 20.9916C95.6974 20.085 95.6974 19.0944 95.3784 18.1878C95.2373 17.7034 94.9921 17.2567 94.6604 16.88C94.3022 16.4843 93.864 16.1717 93.3758 15.9635C92.7903 15.6999 92.1554 15.5681 91.5148 15.5771H82.1269V23.6023Z" fill="white"></path> <path d="M114.205 8.18115H108.578V42.6995H114.205V8.18115Z" fill="white"></path> <path d="M159.3 23.6967C158.022 23.685 156.767 24.0368 155.676 24.7122C154.548 25.4207 153.535 26.3013 152.672 27.3229V42.7937H147.001V18.8617H150.816L151.817 22.7306C154.152 19.7319 157.107 18.2342 160.683 18.2375C161.928 18.2298 163.167 18.4255 164.351 18.8171C165.495 19.19 166.551 19.7989 167.452 20.6055C168.384 21.4619 169.117 22.5178 169.597 23.6967C170.16 25.1261 170.436 26.6555 170.408 28.1947V42.7441H164.732V29.3688C164.749 28.5118 164.605 27.6592 164.307 26.8572C164.052 26.1751 163.644 25.5628 163.115 25.0689C162.604 24.5973 162.004 24.2351 161.352 24.0038C160.693 23.7706 159.998 23.6566 159.3 23.6669V23.6967Z" fill="white"></path> <path d="M209.349 32.8858L205.056 42.6993H202.721L217.072 10.0635H219.548L233.899 42.6993H231.559L227.29 32.8858H209.349ZM210.204 30.9043H226.411L218.307 12.4413L210.204 30.9043Z" fill="white"></path> <path d="M240 8.18115H237.998V42.6995H240V8.18115Z" fill="white"></path> <path d="M193.812 8.37451V18.1385L194.144 21.4774C193.06 20.558 191.857 19.793 190.569 19.2036C189.294 18.6243 187.912 18.3271 186.515 18.3317C184.941 18.3252 183.382 18.6339 181.926 19.24C180.47 19.8461 179.146 20.7377 178.031 21.8638C176.867 23.0617 175.947 24.4809 175.325 26.04C174.703 27.5991 174.391 29.2674 174.406 30.9491C174.386 32.7011 174.729 34.4378 175.413 36.0466C176.03 37.5384 176.918 38.8995 178.031 40.0592C179.137 41.1783 180.45 42.0654 181.894 42.6699C183.387 43.3101 184.992 43.6386 186.613 43.6359C188.171 43.633 189.713 43.3042 191.14 42.6699C192.58 42.0311 193.901 41.1482 195.048 40.0592L195.19 39.9156L196.167 42.8879H199.503V8.37451H193.812ZM187.399 38.37C183.574 38.37 180.468 35.0113 180.468 30.8649C180.468 26.7186 183.574 23.3599 187.399 23.3599C191.224 23.3599 194.335 26.7186 194.335 30.8649C194.335 35.0113 191.228 38.37 187.399 38.37Z" fill="white"></path> <path d="M130.833 43.0065C123.819 43.0065 118.724 38.1517 118.724 30.6219C118.724 23.0921 123.687 18.2373 130.833 18.2373C137.803 18.2373 142.726 22.9633 142.726 30.1265C142.733 30.9112 142.675 31.6951 142.55 32.4697H124.908C125.211 36.0216 127.653 38.018 130.701 38.018C133.314 38.018 134.755 36.7151 135.536 35.1101H142.116C140.836 39.514 136.801 43.0065 130.833 43.0065ZM124.971 28.353H136.43C136.342 25.1925 133.817 23.1961 130.676 23.1961C127.741 23.1961 125.43 25.0587 124.952 28.353H124.971Z" fill="white"></path> </svg> 