<?xml version="1.0" encoding="UTF-8"?> <svg xmlns="http://www.w3.org/2000/svg" width="50" height="50" viewBox="0 0 50 50" fill="none"> <rect width="50" height="50" rx="8" fill="#FF8775"></rect> <path d="M12.6 15C12.2688 15 12 15.2682 12 15.6V36C12 36.3318 12.2688 36.6 12.6 36.6H26.7809C26.6555 36.213 26.5656 35.811 26.502 35.4H13.2V16.2H38.4V27.634C38.8308 27.91 39.2328 28.2263 39.6 28.5797V15.6C39.6 15.2682 39.3312 15 39 15H12.6ZM25.8 18.6L23.9285 20.3215L21.3504 19.9746L20.9004 22.4145L18.6 23.5746L19.7437 25.8L18.6 28.0242L20.9004 29.1855L21.3504 31.6242L23.9285 31.2785L25.8 33L26.6684 32.202C26.8718 31.4346 27.1866 30.7138 27.5988 30.0586L27.273 30.0141L25.8 31.3687V20.2312L27.273 21.5871L29.277 21.3176L29.6273 23.2184L31.3805 24.102L30.5074 25.8L31.1367 27.0258C31.5063 26.868 31.8944 26.7445 32.291 26.6449L31.8562 25.8L33 23.5758L30.6996 22.4145L30.2496 19.9758L27.6715 20.3215L25.8 18.6ZM33 27.6L32.6402 29.5195C32.4602 29.5795 32.2202 29.6398 32.0402 29.7598L30.4195 28.6195L28.6195 30.4195L29.7 31.9195C29.64 32.1595 29.5198 32.3405 29.4598 32.5805L27.6 32.8805V35.4L29.4598 35.7C29.5198 35.88 29.58 36.12 29.7 36.3L28.6195 37.9195L30.4195 39.7195L32.0402 38.6402C32.2802 38.7602 32.46 38.8205 32.7 38.8805L33 40.8H35.4598L35.8195 38.9402C35.9995 38.8802 36.1795 38.82 36.4195 38.7L38.0402 39.7805L39.8402 37.9805L38.7 36.4195C38.82 36.1795 38.8802 35.9398 38.9402 35.7598L40.8 35.4V32.8805L38.8805 32.5805C38.8205 32.4005 38.7602 32.1605 38.6402 31.9805L39.7195 30.3598L37.9805 28.6195L36.4195 29.7598C36.2395 29.6398 35.9995 29.5795 35.8195 29.5195L35.5195 27.6H33ZM34.0195 28.8H34.5L34.7402 30.4195L35.1 30.5402C35.46 30.6602 35.8195 30.7798 36.1195 30.9598L36.4805 31.2L37.8598 30.1805L38.1598 30.4805L37.2 31.8598L37.3805 32.1598C37.5605 32.5198 37.68 32.8802 37.8 33.2402L37.9195 33.6L39.6 33.8402V34.3195L37.9805 34.6805L37.8598 35.0402C37.7398 35.4002 37.6202 35.7598 37.4402 36.0598L37.2 36.4195L38.2195 37.8L37.8598 38.1598L36.4805 37.2L36.1805 37.3805C35.8205 37.5605 35.46 37.68 35.1 37.8L34.7402 37.9195L34.4402 39.6H33.9598L33.7195 37.9805L33.3598 37.8598C32.9998 37.7398 32.6402 37.6202 32.3402 37.4402L31.9805 37.2L30.5402 38.1598L30.1805 37.8L31.1402 36.4195L30.9598 36.1195C30.7798 35.7595 30.6602 35.3402 30.5402 35.0402L30.4195 34.6805L28.8 34.3805V33.9L30.4805 33.6L30.5402 33.1805C30.6002 32.8805 30.72 32.5195 30.9 32.2195L31.1402 31.9195L30.1805 30.5402L30.5402 30.1805L31.9195 31.1402L32.2195 31.0195C32.6395 30.8395 32.9998 30.6602 33.3598 30.5402L33.7195 30.4805L34.0195 28.8ZM34.2 31.7402C32.88 31.7402 31.8 32.8202 31.8 34.1402C31.8 35.4602 32.88 36.5402 34.2 36.5402C35.52 36.5402 36.6 35.5202 36.6 34.1402C36.6 32.8202 35.52 31.7402 34.2 31.7402ZM34.2 33C34.86 33 35.4 33.48 35.4 34.2C35.4 34.86 34.86 35.4 34.2 35.4C33.54 35.4 33 34.86 33 34.2C33 33.54 33.54 33 34.2 33Z" fill="white"></path> </svg> 